<svg width="100" height="100" viewBox="50 -5 70 70" fill="none" xmlns="http://www.w3.org/2000/svg">
<path d="M116.555 34.2553C116.158 34.0718 115.68 34.1796 115.41 34.5146C114.216 35.9978 112.664 37.3654 110.794 38.579C99.9581 45.5994 85.104 42.9661 77.6874 32.7034C70.3984 22.6189 73.0333 8.67461 83.5602 1.61939C83.9145 1.3819 84.0511 0.943439 83.8908 0.559762C83.7297 0.175283 83.3079 -0.0491148 82.8863 0.00914499C78.5518 0.628533 74.2993 2.22747 70.587 4.63198C63.8918 8.96957 59.3879 15.5184 57.9061 23.0731C56.4306 30.5928 58.1301 38.211 62.6913 44.5232C68.555 52.6346 78.0673 57 87.738 57C93.6299 57 99.581 55.3792 104.8 51.997C110.937 48.0221 115.288 42.0822 117.055 35.2714C117.162 34.8625 116.952 34.438 116.555 34.2553ZM103.752 50.5233C90.8155 58.906 73.0825 55.7638 64.2269 43.5106C59.9499 37.5933 58.356 30.451 59.7395 23.4011C61.1293 16.3171 65.3535 10.1753 71.6343 6.10566C74.0407 4.54672 76.6884 3.34973 79.4353 2.56678C70.6762 10.6468 69.0441 23.8804 76.1519 33.716C84.1486 44.779 100.16 47.6212 111.841 40.0527C112.612 39.5533 113.333 39.0287 114.003 38.4806C111.932 43.3297 108.385 47.5228 103.752 50.5233Z" stroke  ="#09FB82" stroke-width="4" fill="#09FB82"/>
</svg>
