<svg width="366" height="57" viewBox="0 0 366 57" fill="none" xmlns="http://www.w3.org/2000/svg">
<path d="M0 54.1035V3.82834H42.0604V8.10941H4.99582V25.4167H40.1869V29.6611H4.99582V49.8224H42.6114V54.1035H0Z" fill="#242424"/>
<path d="M128.184 54.1035V3.82834H132.776V49.8224H169.657V54.1035H128.184Z" fill="#242424"/>
<path d="M180.934 54.1035V3.82834H185.526V54.1035H180.934Z" fill="#242424"/>
<path d="M251.757 19.2695C251.757 21.782 251.341 24.0018 250.509 25.9289C249.7 27.856 248.415 29.4782 246.651 30.7954C244.888 32.1127 242.611 33.1128 239.819 33.7958C237.052 34.4545 233.709 34.7838 229.791 34.7838H207.126V54.1035H202.534V3.82834H229.791C233.709 3.82834 237.052 4.16985 239.819 4.85287C242.611 5.51149 244.888 6.48724 246.651 7.7801C248.415 9.07296 249.7 10.6829 250.509 12.61C251.341 14.5371 251.757 16.7569 251.757 19.2695ZM247.019 19.2695C247.019 16.8789 246.615 14.9518 245.807 13.4882C245.023 12.0246 243.798 10.9025 242.133 10.1219C240.492 9.31689 238.399 8.78023 235.852 8.5119C233.329 8.24358 230.329 8.10941 226.852 8.10941H207.126V30.5027H226.852C228.199 30.5027 229.631 30.5149 231.15 30.5393C232.693 30.5393 234.211 30.4661 235.705 30.3198C237.199 30.149 238.619 29.8685 239.966 29.4782C241.337 29.0635 242.537 28.4415 243.566 27.6121C244.619 26.7827 245.451 25.6972 246.064 24.3555C246.7 23.0139 247.019 21.3185 247.019 19.2695Z" fill="#242424"/>
<path d="M304.948 11.2562C303.993 10.7927 302.891 10.3048 301.642 9.79257C300.393 9.25591 298.961 8.78023 297.344 8.36554C295.752 7.95085 293.953 7.60934 291.944 7.34101C289.936 7.04829 287.708 6.90193 285.259 6.90193C282.296 6.90193 279.651 7.07268 277.324 7.41419C275.022 7.7557 273.063 8.29236 271.447 9.02417C269.855 9.73158 268.631 10.6341 267.773 11.7319C266.941 12.8296 266.525 14.1346 266.525 15.647C266.525 16.9155 266.916 18.0254 267.7 18.9767C268.508 19.9281 269.586 20.7697 270.933 21.5015C272.304 22.2333 273.896 22.9041 275.708 23.514C277.545 24.0994 279.479 24.6604 281.512 25.1971C283.569 25.7094 285.675 26.2338 287.83 26.7705C290.01 27.3072 292.116 27.8926 294.148 28.5268C296.206 29.1367 298.14 29.8319 299.952 30.6125C301.789 31.3687 303.381 32.259 304.728 33.2836C306.099 34.3081 307.177 35.479 307.96 36.7963C308.769 38.1135 309.173 39.6381 309.173 41.37C309.173 43.2484 308.818 44.8949 308.107 46.3097C307.397 47.7002 306.43 48.9077 305.205 49.9322C304.005 50.9323 302.585 51.7739 300.944 52.4569C299.328 53.1156 297.589 53.64 295.728 54.0303C293.891 54.4206 291.981 54.6889 289.997 54.8353C288.038 55.0061 286.104 55.0914 284.194 55.0914C279.81 55.0914 275.83 54.7743 272.255 54.1401C268.704 53.5059 265.312 52.6399 262.08 51.5422V45.9438C265.41 47.9197 268.924 49.2736 272.622 50.0054C276.345 50.7372 280.251 51.1031 284.34 51.1031C287.23 51.1031 289.9 50.9323 292.348 50.5908C294.797 50.2493 296.916 49.7127 298.703 48.9808C300.491 48.2246 301.875 47.2489 302.854 46.0536C303.858 44.8583 304.36 43.3947 304.36 41.6628C304.36 40.2723 303.956 39.0527 303.148 38.0037C302.365 36.9548 301.287 36.0401 299.916 35.2595C298.569 34.4545 296.977 33.7471 295.14 33.1372C293.328 32.5274 291.406 31.9663 289.373 31.4541C287.34 30.9174 285.234 30.4051 283.055 29.9173C280.9 29.405 278.806 28.8561 276.773 28.2707C274.741 27.6853 272.806 27.0266 270.969 26.2948C269.157 25.563 267.565 24.7092 266.194 23.7335C264.847 22.7334 263.769 21.5869 262.961 20.294C262.178 19.0011 261.786 17.5009 261.786 15.7934C261.786 14.1102 262.104 12.6222 262.741 11.3294C263.378 10.0121 264.247 8.87781 265.349 7.92646C266.476 6.97511 267.786 6.18232 269.28 5.54808C270.773 4.88946 272.365 4.37719 274.055 4.01129C275.769 3.62099 277.545 3.34047 279.381 3.16971C281.218 2.99896 283.03 2.91358 284.818 2.91358C286.777 2.91358 288.626 2.99896 290.365 3.16971C292.128 3.34047 293.818 3.57221 295.434 3.86493C297.075 4.13326 298.667 4.45037 300.21 4.81628C301.777 5.18218 303.356 5.57248 304.948 5.98717V11.2562Z" fill="#242424"/>
<path d="M323.389 54.1035V3.82834H365.449V8.10941H328.384V25.4167H363.576V29.6611H328.384V49.8224H366V54.1035H323.389Z" fill="#242424"/>
<path d="M116.555 34.2553C116.158 34.0718 115.68 34.1796 115.41 34.5146C114.216 35.9978 112.664 37.3654 110.794 38.579C99.9581 45.5994 85.104 42.9661 77.6874 32.7034C70.3984 22.6189 73.0333 8.67461 83.5602 1.61939C83.9145 1.3819 84.0511 0.943439 83.8908 0.559762C83.7297 0.175283 83.3079 -0.0491148 82.8863 0.00914499C78.5518 0.628533 74.2993 2.22747 70.587 4.63198C63.8918 8.96957 59.3879 15.5184 57.9061 23.0731C56.4306 30.5928 58.1301 38.211 62.6913 44.5232C68.555 52.6346 78.0673 57 87.738 57C93.6299 57 99.581 55.3792 104.8 51.997C110.937 48.0221 115.288 42.0822 117.055 35.2714C117.162 34.8625 116.952 34.438 116.555 34.2553ZM103.752 50.5233C90.8155 58.906 73.0825 55.7638 64.2269 43.5106C59.9499 37.5933 58.356 30.451 59.7395 23.4011C61.1293 16.3171 65.3535 10.1753 71.6343 6.10566C74.0407 4.54672 76.6884 3.34973 79.4353 2.56678C70.6762 10.6468 69.0441 23.8804 76.1519 33.716C84.1486 44.779 100.16 47.6212 111.841 40.0527C112.612 39.5533 113.333 39.0287 114.003 38.4806C111.932 43.3297 108.385 47.5228 103.752 50.5233Z" fill="#09FB82"/>
</svg>
